Coordinates
version=1
nRows=14
nColumns=42
inDegrees=yes

Units are S.I. units (second, meters, Newtons, ...)
If the header above contains a line with 'inDegrees', this indicates whether rotational values are in degrees (yes) or radians (no).

endheader
time	pelvis_tilt	pelvis_list	pelvis_rotation	pelvis_tx	pelvis_ty	pelvis_tz	hip_flexion_r	hip_adduction_r	hip_rotation_r	knee_angle_r	knee_adduction_r	knee_angle_r_beta	ankle_angle_r	subtalar_angle_r	mtp_angle_r	hip_flexion_l	hip_adduction_l	hip_rotation_l	knee_angle_l	knee_adduction_l	knee_angle_l_beta	ankle_angle_l	subtalar_angle_l	mtp_angle_l	lumbar_extension	lumbar_bending	lumbar_rotation	arm_flex_r	arm_add_r	arm_rot_r	elbow_flex_r	pro_sup_r	wrist_flex_r	wrist_dev_r	arm_flex_l	arm_add_l	arm_rot_l	elbow_flex_l	pro_sup_l	wrist_flex_l	wrist_dev_l
      0.85000000	     10.15653479	      0.18513471	     -7.25954055	      0.24672186	      0.84091394	     -0.29162677	      9.95102728	     -6.30972499	    -12.86491927	     53.95350638	     -8.12696239	      0.94166633	     10.20288090	     -3.18272734	     -7.53643597	    -11.87124534	      4.55324297	     -8.51047341	      9.29606020	      4.95742551	      0.16224686	     16.52948584	     -1.30081706	     -7.53643597	    -20.32068701	     -3.15560865	      6.24751913	      1.99906712	    -15.29813452	     -4.86162997	     33.94487130	     90.00000001	      0.00000000	      0.00000000	     -2.79468170	     -8.03671083	    -34.60380524	     31.71060838	     90.00000001	      0.00000000	      0.00000000
      0.86000000	      9.57648074	      0.31703391	     -6.85803158	      0.26058631	      0.84035513	     -0.29284198	     12.00823688	     -6.34247243	    -13.29902547	     51.49467293	     -7.29794527	      0.89875159	     10.30984243	     -3.09534067	     -7.53594839	    -12.55871087	      4.80004338	     -9.26016644	      8.79903294	      4.84422302	      0.15357210	     16.66978233	     -1.07009644	     -7.53594839	    -19.68796596	     -2.88684558	      5.44938336	      1.80719456	    -15.29260580	     -4.87918565	     33.91754704	     90.00000001	      0.00000000	      0.00000000	     -1.80541919	     -7.88663618	    -33.96191749	     32.60173336	     90.00000001	      0.00000000	      0.00000000
      0.87000000	      9.78437904	     -0.74966634	     -6.15373321	      0.27615235	      0.84078800	     -0.29295944	     12.01970556	     -4.69736117	    -14.01341323	     47.45730096	     -6.58254651	      0.82828616	     11.09586538	     -3.13635358	     -7.53482360	    -15.38134027	      3.54068985	     -8.43492513	      6.40555081	      5.34889053	      0.11179795	     17.35401050	      0.89159183	     -7.53482360	    -19.83400701	     -1.46688083	      4.58722673	      1.97252666	    -15.16584765	     -5.22526755	     32.99211101	     90.00000001	      0.00000000	      0.00000000	     -2.02010331	     -8.09621601	    -30.22734881	     34.97537004	     90.00000001	      0.00000000	      0.00000000
      0.88000000	      9.94729081	     -1.23044841	     -5.49296846	      0.29081295	      0.84045959	     -0.29356317	     12.36703530	     -3.95320217	    -14.92321031	     43.64259444	     -5.80651866	      0.76170697	     10.91676938	     -3.37607199	     -7.53235829	    -17.32085627	      2.98954075	     -8.53149147	      5.32756004	      5.52754444	      0.09298346	     17.47754202	      1.18089413	     -7.53235829	    -20.00479398	     -0.62442718	      3.80717723	      1.80938373	    -15.06785392	     -5.85656630	     33.06156895	     90.00000001	      0.00000000	      0.00000000	     -1.81079052	     -8.65572360	    -25.81344923	     36.80543775	     90.00000001	      0.00000000	      0.00000000
      0.89000000	      9.75968952	     -1.31747857	     -4.96915452	      0.30550798	      0.83909386	     -0.29434279	     13.14865341	     -3.77624184	    -15.47356746	     39.95127777	     -4.63813845	      0.69728134	     11.15572549	     -3.57245073	     -7.53092339	    -18.72720054	      2.92356750	     -8.76707291	      4.40842422	      5.60134863	      0.07694152	     17.87292359	      1.97752261	     -7.53092339	    -19.71124234	     -0.20972749	      2.92584100	      1.80778709	    -15.00529988	     -6.14565027	     32.67823282	     90.00000001	      0.00000000	      0.00000000	     -1.31442997	     -8.82917266	    -24.20729002	     38.49035037	     90.00000001	      0.00000000	      0.00000000
      0.90000000	      9.43266434	     -1.23872253	     -4.44243042	      0.32012987	      0.83714985	     -0.29513598	     13.99292111	     -3.85990922	    -16.02046688	     36.17878554	     -3.31612985	      0.63143893	     11.37939067	     -3.47530053	     -7.52986190	    -19.80885032	      2.98697071	     -9.08884397	      3.78014814	      5.71611268	      0.06597603	     18.23189021	      2.75726097	     -7.52986190	    -19.25947308	      0.02855833	      2.05258518	      1.70897149	    -14.96554905	     -6.42378188	     32.43311925	     90.00000001	      0.00000000	      0.00000000	     -0.73967718	     -9.03353050	    -22.78591427	     40.12094360	     90.00000001	      0.00000000	      0.00000000
      0.91000000	      9.31759610	     -1.21864558	     -3.97718402	      0.33486234	      0.83516578	     -0.29571525	     14.40619056	     -3.82375002	    -16.82707382	     32.12069341	     -2.18926532	      0.56061186	     11.45714699	     -3.14276429	     -7.52844794	    -21.08064780	      3.02379024	     -9.73077264	      3.29616010	      5.79155464	      0.05752885	     18.62056742	      3.48392608	     -7.52844794	    -19.05891048	      0.27524300	      1.32757750	      1.58759006	    -14.92585459	     -6.90822819	     32.29687253	     90.00000001	      0.00000000	      0.00000000	     -0.12866468	     -9.33591091	    -21.02954095	     41.67491279	     90.00000001	      0.00000000	      0.00000000
      0.92000000	      9.08639432	     -0.98469785	     -3.53001312	      0.34953380	      0.83273919	     -0.29637465	     14.86525278	     -4.11738645	    -17.54659029	     28.10547274	     -0.86525322	      0.49053304	     11.64360222	     -2.14922281	     -7.52714662	    -22.09721544	      3.28551379	    -10.35445561	      3.01692874	      5.83633222	      0.05265534	     19.00925366	      4.26331575	     -7.52714662	    -18.72927552	      0.29566078	      0.57866532	      1.45449188	    -14.88888255	     -7.36888631	     32.17183968	     90.00000001	      0.00000000	      0.00000000	      0.53155997	     -9.60072577	    -19.69503036	     43.19781611	     90.00000001	      0.00000000	      0.00000000
      0.93000000	      8.87433529	     -0.72025781	     -3.07887645	      0.36427417	      0.83015596	     -0.29689876	     15.14336888	     -4.43338280	    -18.38981998	     24.03473478	      0.42279671	      0.41948526	     11.76094611	     -0.46069031	     -7.52570911	    -23.07630599	      3.51677841	    -11.03618097	      2.89254610	      5.93351340	      0.05048445	     19.39180499	      5.10860067	     -7.52570911	    -18.43155493	      0.26613645	     -0.12101183	      1.27215428	    -14.84136918	     -7.93139634	     32.14299786	     90.00000001	      0.00000000	      0.00000000	      1.23023755	     -9.87928504	    -18.41397189	     44.64281208	     90.00000001	      0.00000000	      0.00000000
      0.94000000	      8.66305121	     -0.36347644	     -2.66394230	      0.37908245	      0.82741465	     -0.29743359	     15.31893427	     -4.86890147	    -19.17816725	     20.07850710	      1.73410915	      0.35043606	     11.89476734	      1.67650268	     -7.52445435	    -24.00244943	      3.88079369	    -11.65922930	      2.88074679	      5.90927532	      0.05027852	     19.73007956	      5.92974681	     -7.52445435	    -18.13730489	      0.13366634	     -0.76506709	      1.07343920	    -14.81793174	     -8.45525371	     32.13189288	     90.00000001	      0.00000000	      0.00000000	      1.94991860	    -10.12043551	    -17.30800295	     46.03174802	     90.00000001	      0.00000000	      0.00000000
      0.95000000	      8.49676030	     -0.03453303	     -2.23690989	      0.39403529	      0.82468178	     -0.29776820	     15.32672214	     -5.23690475	    -20.03523820	     16.28807425	      2.94604728	      0.28428052	     11.84486749	      4.25585687	     -7.52307903	    -24.93870687	      4.09109107	    -12.19848542	      3.00238357	      5.99457768	      0.05240148	     20.05122071	      6.79957639	     -7.52307903	    -17.90558337	      0.01761642	     -1.34427286	      0.81870846	    -14.78478494	     -9.09322947	     32.21477102	     90.00000001	      0.00000000	      0.00000000	      2.67196037	    -10.36551813	    -16.23849307	     47.33888538	     90.00000001	      0.00000000	      0.00000000
      0.96000000	      7.99635035	      0.61514213	     -1.91898940	      0.40885340	      0.82150241	     -0.29837442	     15.84149361	     -6.04891718	    -20.39288202	     13.14235685	      4.26316935	      0.22937740	     11.42519836	      6.28558983	     -7.52258264	    -25.37839609	      4.80089917	    -12.39533531	      3.27252939	      5.73159661	      0.05711641	     20.17548411	      7.29298470	     -7.52258264	    -17.30596593	     -0.42821620	     -1.89688894	      0.50727463	    -14.81985671	     -9.34858653	     32.34940129	     90.00000001	      0.00000000	      0.00000000	      3.39060881	    -10.45645998	    -15.63916106	     48.49479128	     90.00000001	      0.00000000	      0.00000000
      0.97000000	      7.95297037	      0.96036428	     -1.51611274	      0.42398684	      0.81895200	     -0.29849712	     15.65847404	     -6.37581042	    -20.76322824	     10.15529626	      5.21863259	      0.17724336	     11.24800901	      8.58594724	     -7.52207611	    -26.39446141	      4.93464719	    -12.45559895	      3.54810075	      5.75954570	      0.06192604	     20.24166863	      7.88024897	     -7.52207611	    -17.23995912	     -0.59144575	     -2.38730555	      0.23752277	    -14.82123667	     -9.79303104	     32.50788795	     90.00000001	      0.00000000	      0.00000000	      4.05819111	    -10.66094399	    -14.75527806	     49.68667433	     90.00000001	      0.00000000	      0.00000000
      0.98000000	      7.95656122	      1.08728008	     -1.10029101	      0.43943381	      0.81658214	     -0.29839871	     15.51138004	     -6.39697777	    -21.23555006	      7.92637898	      5.79196128	      0.13834141	     11.01621534	     10.55315308	     -7.52155345	    -27.39197531	      4.69646292	    -12.50475291	      4.04427557	      5.87091242	      0.07058592	     20.26446405	      8.44535083	     -7.52155345	    -17.20887987	     -0.51821318	     -2.73510323	     -0.11213459	    -14.83746312	    -10.36374406	     32.67502373	     90.00000001	      0.00000000	      0.00000000	      4.67743352	    -10.79159183	    -13.87683154	     50.78181568	     90.00000001	      0.00000000	      0.00000000
